<?xml version="1.0" encoding="UTF-8"?>
<svg id="Layer_1" data-name="Layer 1" xmlns="http://www.w3.org/2000/svg" xmlns:xlink="http://www.w3.org/1999/xlink" version="1.1" viewBox="0 0 33 33">
  <defs>
    <clipPath id="clippath">
      <rect width="33" height="33" fill="none" stroke-width="0"/>
    </clipPath>
  </defs>
  <g clip-path="url(#clippath)">
    <g id="Lager_2-2" data-name="Lager 2-2">
      <g id="Layer_1-2" data-name="Layer 1">
        <g>
          <path d="M23.72,14.64l1.35-8.38c.03-.19-.03-.32-.27-.32h-2.59c-.19,0-.32.1-.35.32l-.98,8.42c.95-.02,1.91-.02,2.86-.03h-.02Z" fill="#fff" stroke-width="0"/>
          <path d="M15.49,14.74h.86l.25-1.51h.06l.24,1.49c.78,0,1.56-.02,2.35-.03l-1.4-8.45c-.03-.22-.16-.32-.35-.32h-1.84c-.19,0-.32.1-.35.32l-1.4,8.46c.52,0,1.05.02,1.57.02h0v.02Z" fill="#fff" stroke-width="0"/>
          <path d="M22.84,19.06c-.33.06-.75-.16-1.1-.29-.44-.19-.89-.35-1.33-.48l-.21,1.79h-.1l-.32-1.97c-.67-.1-1.35,0-2.08.48-.06.05-.14.05-.21.06l1.3,8.21c.03.19.13.32.32.32h2.32c.19,0,.29-.13.32-.32l1.25-7.83h-.17v.02Z" fill="#fff" stroke-width="0"/>
          <path d="M12.33,14.69l-.94-8.45c-.03-.22-.16-.32-.35-.32h-2.68c-.25,0-.32.13-.29.32l1.33,8.42c.97,0,1.94.03,2.91.03h.02Z" fill="#fff" stroke-width="0"/>
          <path d="M15.11,18.56c-.64,0-1.24.08-1.86.14l-.22,1.38h-.1l-.16-1.33h-.06c-.14.02-.32.21-.41.16-.76-.46-1.52-.6-2.29-.59l1.37,8.54c.03.19.13.32.32.32h2.33c.19,0,.29-.13.32-.32l1.37-8.26c-.21-.03-.4-.05-.59-.05h-.02Z" fill="#fff" stroke-width="0"/>
        </g>
        <g>
          <path d="M57.25,16.37c-.78-.24-1.51-.3-2.22-.22-1.1.11-2.19.11-3.14-.29-.92-.4-1.54-.22-2.03.38-.51-.17-1.25-.57-1.4-.46-.71.54-1.73-.32-2.38.38-.06.08-.57.05-.67-.05-.62-.75-1.57-.48-2.41-.51-1.13-.03-2.27-.14-3.4-.03-1.21.1-2.56-.35-3.33.46-.94-.16-1.62-.35-2.37-.4-.76-.06-1.78-.22-2.27.08-.89.54-1.37-.32-2.05-.1-.21.06-.51,0-.68.11-.37.21-.83.08-1.08.17-.91.27-1.37-.43-2.08-.41-1.76.03-3.57-.05-5.3.17-.7.08-1.33.02-2,.02-.51,0-1.05-.17-1.57-.17H7.89c-3.76,0-7.49-.06-11.26-.02-4.95.03-9.92.16-14.88.14-1.05,0-2.1-.19-3.41-.32-.6-.17-1.21-.37-1.81-.54-.79.1-1.16.35-1.3.95-.22,1.08.71,1,2.16,1.25,1.05.19,2.14.35,3.22.37,6.54.06,13.07-.05,19.59-.08,5.81-.03,11.61-.02,17.4-.06,4.78-.03,9.56,0,14.34-.08,1.02-.02,2.11-.33,3.06-.19,2.87.41,5.75.21,8.61.17,1.41-.02,2.84-.27,4.26-.24,2.48.05,4.95.22,7.45.33.22,0,.54.06.7-.03.83-.49,1.67-.3,2.54-.17.52.08,1.21.24,1.51-.32-.64-.33-1.22-.65-1.86-.98-.32.24-.65.48-1,.73l.05-.06h0Z" fill="#fff" fill-rule="evenodd" stroke-width="0"/>
          <path d="M77.74,15.55c-.29.03-.62.25-.83.19-1.43-.46-2.76-.21-4.18.25-.71.24-1.86.35-2.3-.3-.98.22-1.68.56-2.33.51-.59-.03-1.03-.67-1.81-.14-.17.11-1.02-.27-1.08-.22-.68.98-1.1.16-1.51-.05-.84.29-1.59.52-2.62.87.6.14.91.25,1.21.29,2.99.27,5.91-.38,8.88-.35,2.54.03,5.1-.24,7.64-.43.32-.02.6-.29.92-.44-.73-.22-1.33-.22-1.97-.16h-.02v-.02Z" fill="#fff" fill-rule="evenodd" stroke-width="0"/>
        </g>
      </g>
    </g>
  </g>
</svg>