<?xml version="1.0" encoding="UTF-8"?>
<svg id="Lager_2" data-name="Lager 2" xmlns="http://www.w3.org/2000/svg" viewBox="0 0 77.8 28.91">
  <defs>
    <style>
      .cls-1, .cls-2 {
        fill: #fff;
      }

      .cls-2 {
        fill-rule: evenodd;
      }
    </style>
  </defs>
  <g id="Lager_2-2" data-name="Lager 2">
    <g id="Layer_1" data-name="Layer 1">
      <path class="cls-1" d="m0,.2c0-.12.08-.2.2-.2h1.71c.18,0,.28.06.32.2l2.22,7.54h.08L6.69.2c.04-.14.14-.2.31-.2h1.69c.12,0,.2.08.2.2v12.99c0,.12-.08.2-.2.2h-1.51c-.12,0-.2-.08-.2-.2V4.72h-.12l-1.73,6.08c-.04.12-.12.2-.26.2h-.87c-.14,0-.21-.08-.25-.2l-1.73-6.08h-.12v8.47c0,.12-.08.2-.2.2H.2c-.12,0-.2-.08-.2-.2V.2Z"/>
      <path class="cls-1" d="m10.79.2c0-.12.08-.2.2-.2h5.49c.12,0,.2.08.2.2v1.51c0,.12-.08.2-.2.2h-3.47c-.08,0-.12.04-.12.12v3.52c0,.08.04.12.12.12h2.99c.12,0,.2.08.2.2v1.52c0,.12-.08.2-.2.2h-2.99c-.08,0-.12.04-.12.12v3.66c0,.07.04.12.12.12h3.47c.12,0,.2.08.2.2v1.52c0,.12-.08.2-.2.2h-5.49c-.12,0-.2-.08-.2-.2V.2Z"/>
      <path class="cls-1" d="m20.18.2c.04-.12.1-.2.22-.2h1.65c.12,0,.2.08.22.2l2.83,12.99c.02.12-.04.2-.16.2h-1.67c-.14,0-.2-.08-.22-.2l-.53-2.7h-2.66l-.53,2.7c-.02.12-.08.2-.22.2h-1.67c-.12,0-.18-.08-.16-.2L20.18.2Zm2.01,8.52l-.94-4.98h-.06l-.98,4.98h1.99-.01Z"/>
      <path class="cls-1" d="m26.19.2c0-.12.08-.2.2-.2h2.09c.15,0,.23.06.27.2l2.48,9.25h.1V.2c0-.12.08-.2.2-.2h1.45c.12,0,.2.08.2.2v12.99c0,.12-.08.2-.2.2h-1.95c-.16,0-.24-.06-.28-.2l-2.6-9.25h-.12v9.25c0,.12-.08.2-.2.2h-1.46c-.12,0-.2-.08-.2-.2V.2h.02Z"/>
      <path class="cls-1" d="m41.33,13.38c-.12,0-.17-.08-.2-.2l-1.36-8.6h-.04l-1.42,8.6c-.02.12-.08.2-.2.2h-1.47c-.12,0-.17-.08-.2-.2L34.38.2c-.02-.12.02-.2.18-.2h1.69c.12,0,.2.06.22.2l.96,8.72h.06L38.93.2c.02-.14.1-.2.21-.2h1.16c.12,0,.2.06.22.2l1.44,8.72h.06L43.04.2c.02-.14.1-.2.22-.2h1.63c.16,0,.2.08.17.2l-2.08,12.99c-.02.12-.08.2-.2.2h-1.46,0Z"/>
      <path class="cls-1" d="m46.28.2c0-.12.08-.2.2-.2h1.71c.12,0,.2.08.2.2v5.27c0,.08.04.12.12.12h2.26c.08,0,.12-.04.12-.12V.2c0-.12.08-.2.2-.2h1.71c.12,0,.2.08.2.2v12.99c0,.12-.08.2-.2.2h-1.71c-.12,0-.2-.08-.2-.2v-5.58c0-.07-.04-.12-.12-.12h-2.26c-.08,0-.12.04-.12.12v5.57c0,.12-.08.2-.2.2h-1.71c-.12,0-.2-.08-.2-.2V.2Z"/>
      <path class="cls-1" d="m54.89.2c0-.12.08-.2.2-.2h1.71c.12,0,.2.08.2.2v12.99c0,.12-.08.2-.2.2h-1.71c-.12,0-.2-.08-.2-.2V.2Z"/>
      <path class="cls-1" d="m58.88.2c0-.12.08-.2.2-.2h1.71c.12,0,.2.08.2.2v11.16c0,.07.04.12.12.12h3.47c.12,0,.2.08.2.2v1.52c0,.12-.08.2-.2.2h-5.49c-.12,0-.2-.08-.2-.2V.2h-.01Z"/>
      <path class="cls-1" d="m66.01.2c0-.12.08-.2.2-.2h5.49c.12,0,.2.08.2.2v1.51c0,.12-.08.2-.2.2h-3.46c-.08,0-.12.04-.12.12v3.52c0,.08.04.12.12.12h2.99c.12,0,.2.08.2.2v1.52c0,.12-.08.2-.2.2h-2.99c-.08,0-.12.04-.12.12v3.66c0,.07.04.12.12.12h3.46c.12,0,.2.08.2.2v1.52c0,.12-.08.2-.2.2h-5.49c-.12,0-.2-.08-.2-.2V.2Z"/>
      <path class="cls-1" d="m0,15.55c0-.12.08-.2.2-.2h1.71c.12,0,.2.08.2.2v12.99c0,.12-.08.2-.2.2H.2c-.12,0-.2-.08-.2-.2v-12.99Z"/>
      <path class="cls-1" d="m4,15.55c0-.12.08-.2.2-.2h2.09c.15,0,.23.06.27.2l2.48,9.25h.1v-9.25c0-.12.08-.2.2-.2h1.45c.12,0,.2.08.2.2v12.99c0,.12-.08.2-.2.2h-1.95c-.16,0-.24-.06-.28-.2l-2.6-9.25h-.12v9.25c0,.12-.08.2-.2.2h-1.46c-.12,0-.2-.08-.2-.2v-12.99h.02Z"/>
      <g>
        <path class="cls-1" d="m69.95,20.25c.34,0,.69.02,1.03.03v-2.89c0-.08.04-.12.12-.12h3.46c.12,0,.2-.08.2-.2v-1.52c0-.12-.08-.2-.2-.2h-5.49c-.12,0-.2.08-.2.2v4.74c.36-.01.71-.03,1.07-.04h0Z"/>
        <path class="cls-1" d="m71.11,26.83c-.08,0-.12-.04-.12-.12v-3.4c-.12,0-.23-.01-.34-.01h-1.76v5.25c0,.12.08.2.2.2h5.49c.12,0,.2-.08.2-.2v-1.52c0-.12-.08-.2-.2-.2h-3.47Z"/>
      </g>
      <g>
        <path class="cls-1" d="m22.11,20.71c.46.01.92,0,1.38.02v-5.17c0-.12-.08-.2-.2-.2h-1.46c-.12,0-.2.08-.2.2v5.14c.17,0,.3.01.47.01h.01Z"/>
        <path class="cls-1" d="m18.35,20.59v-1.29h.12l.37,1.31c.48.01,1.04.03,1.59.05l-1.37-5.1c-.04-.14-.12-.2-.28-.2h-2.09c-.12,0-.2.08-.2.2v4.98c.52.01,1.16.03,1.85.06h.01Z"/>
        <path class="cls-1" d="m21.71,23h-.07v1.8h-.1l-.48-1.8c-.43-.09-.84-.31-1.34-.09-.1.05-.15.06-.21.07l1.56,5.56c.04.14.12.2.28.2h1.95c.12,0,.2-.08.2-.2v-5.52c-.61-.09-1.21-.21-1.78-.02h-.01Z"/>
        <path class="cls-1" d="m17.13,22.99c-.29.11-.46.1-.63.05v5.51c0,.12.08.2.2.2h1.46c.12,0,.2-.08.2-.2v-5.65c-.41-.04-.64-.16-1.22.09h-.01Z"/>
      </g>
      <g>
        <path class="cls-1" d="m30.14,23.36c-.1-.04-.21-.04-.31-.07,0,2.48-.04,2.64-.14,2.97-.14.46-.57.75-1.12.75s-1-.29-1.14-.75c-.1-.32-.13-.49-.14-2.97-.2.01-.41.03-.61.03-.26,0-.53-.14-.78-.22-.22-.08-.48-.32-.64-.24-.04.02-.07,0-.11.03,0,2.92.07,3.4.25,3.94.43,1.31,1.52,2.08,3.16,2.08s2.72-.77,3.15-2.08c.17-.51.23-.94.25-3.39-.6.1-1.21.14-1.82-.08Z"/>
        <path class="cls-1" d="m27.29,20.78c0-2.45.04-2.61.14-2.94.14-.45.57-.75,1.14-.75s.99.3,1.12.75c.1.32.13.49.14,2.96.71,0,1.43.02,2.14.03-.01-2.61-.08-3.04-.25-3.57-.43-1.31-1.52-2.08-3.15-2.08s-2.73.77-3.16,2.08c-.17.51-.24.95-.25,3.48.71.02,1.43.01,2.14.03h0Z"/>
      </g>
      <g>
        <path class="cls-1" d="m42.53,20.84l.85-5.28c.02-.12-.02-.2-.17-.2h-1.63c-.12,0-.2.06-.22.2l-.62,5.3c.6-.01,1.2-.01,1.8-.02h0Z"/>
        <path class="cls-1" d="m37.35,20.9h.54l.16-.95h.04l.15.94c.49,0,.98-.01,1.48-.02l-.88-5.32c-.02-.14-.1-.2-.22-.2h-1.16c-.12,0-.2.06-.22.2l-.88,5.33c.33,0,.66.01.99.01h0Z"/>
        <path class="cls-1" d="m41.98,23.62c-.21.04-.47-.1-.69-.18-.28-.12-.56-.22-.84-.3l-.13,1.13h-.06l-.2-1.24c-.42-.06-.85,0-1.31.3-.04.03-.09.03-.13.04l.82,5.17c.02.12.08.2.2.2h1.46c.12,0,.18-.08.2-.2l.79-4.93h-.11Z"/>
        <path class="cls-1" d="m35.36,20.87l-.59-5.32c-.02-.14-.1-.2-.22-.2h-1.69c-.16,0-.2.08-.18.2l.84,5.3c.61,0,1.22.02,1.83.02h0Z"/>
        <path class="cls-1" d="m37.11,23.31c-.4,0-.78.05-1.17.09l-.14.87h-.06l-.1-.84h-.04c-.09.01-.2.13-.26.1-.48-.29-.96-.38-1.44-.37l.86,5.38c.02.12.08.2.2.2h1.47c.12,0,.18-.08.2-.2l.86-5.2c-.13-.02-.25-.03-.37-.03h-.01Z"/>
      </g>
      <g>
        <path class="cls-1" d="m46.69,20.76v-5.21c0-.12-.08-.2-.2-.2h-1.71c-.12,0-.2.08-.2.2v5.25c.7-.01,1.4-.02,2.1-.04h.01Z"/>
        <path class="cls-1" d="m51.29,20.69v-5.14c0-.12-.08-.2-.2-.2h-1.71c-.12,0-.2.08-.2.2v5.16c.7-.01,1.4-.02,2.1-.03h.01Z"/>
        <path class="cls-1" d="m44.58,23.56v4.99c0,.12.08.2.2.2h1.71c.12,0,.2-.08.2-.2v-5.17c-.69.17-1.4.22-2.1.19h-.01Z"/>
        <path class="cls-1" d="m50.59,23.15c-.48.15-.94.3-1.4.28v5.12c0,.12.08.2.2.2h1.71c.12,0,.2-.08.2-.2v-5.44c-.24-.02-.48-.03-.7.04h0Z"/>
      </g>
      <g>
        <path class="cls-1" d="m55.29,20.64v-3.25c0-.08.04-.12.12-.12h3.46c.12,0,.2-.08.2-.2v-1.52c0-.12-.08-.2-.2-.2h-5.49c-.12,0-.2.08-.2.2v5.11c.7,0,1.4-.02,2.1-.03h.01Z"/>
        <path class="cls-1" d="m55.41,26.83c-.08,0-.12-.04-.12-.12v-3.33c-.37.01-.74.04-1.12.04-.33,0-.66-.04-.99-.08v5.2c0,.12.08.2.2.2h5.49c.12,0,.2-.08.2-.2v-1.52c0-.12-.08-.2-.2-.2h-3.46Z"/>
      </g>
      <g>
        <path class="cls-1" d="m63.73,23.29l1.63,5.32c.04.09.1.14.22.14h1.83c.1,0,.14-.1.1-.2l-1.72-5.25h-2.06Z"/>
        <path class="cls-1" d="m61.06,20.57c.51-.01,1.03-.04,1.54-.05v-3.13c0-.08.04-.12.12-.12h.69c1.17,0,1.69.49,1.69,2.07,0,.46-.06.81-.15,1.1.72-.03,1.44-.05,2.16-.08.05-.31.09-.64.09-1.02,0-2.93-1.44-3.98-3.82-3.98h-2.7c-.12,0-.2.08-.2.2v5.03h.56l.02-.02Z"/>
        <path class="cls-1" d="m61.9,23.28h-1.41v5.26c0,.12.08.2.2.2h1.71c.12,0,.2-.08.2-.2v-5.16c0-.06.04-.09.1-.1h-.8Z"/>
      </g>
      <g>
        <path class="cls-2" d="m63.65,21.93c-.49-.15-.95-.19-1.4-.14-.69.07-1.38.07-1.98-.18-.58-.25-.97-.14-1.28.24-.32-.11-.79-.36-.88-.29-.45.34-1.09-.2-1.5.24-.04.05-.36.03-.42-.03-.39-.47-.99-.3-1.52-.32-.71-.02-1.43-.09-2.14-.02-.76.06-1.61-.22-2.1.29-.59-.1-1.02-.22-1.49-.25-.48-.04-1.12-.14-1.43.05-.56.34-.86-.2-1.29-.06-.13.04-.32,0-.43.07-.23.13-.52.05-.68.11-.57.17-.86-.27-1.31-.26-1.11.02-2.25-.03-3.34.11-.44.05-.84.01-1.26.01-.32,0-.66-.11-.99-.11h-5.65c-2.37,0-4.72-.04-7.09-.01-3.12.02-6.25.1-9.37.09-.66,0-1.32-.12-2.15-.2-.38-.11-.76-.23-1.14-.34-.5.06-.73.22-.82.6-.14.68.45.63,1.36.79.66.12,1.35.22,2.03.23,4.12.04,8.23-.03,12.34-.05,3.66-.02,7.31-.01,10.96-.04,3.01-.02,6.02,0,9.03-.05.64-.01,1.33-.21,1.93-.12,1.81.26,3.62.13,5.42.11.89-.01,1.79-.17,2.68-.15,1.56.03,3.12.14,4.69.21.14,0,.34.04.44-.02.52-.31,1.05-.19,1.6-.11.33.05.76.15.95-.2-.4-.21-.77-.41-1.17-.62-.2.15-.41.3-.63.46l.03-.04Z"/>
        <path class="cls-2" d="m76.55,21.41c-.18.02-.39.16-.52.12-.9-.29-1.74-.13-2.63.16-.45.15-1.17.22-1.45-.19-.62.14-1.06.35-1.47.32-.37-.02-.65-.42-1.14-.09-.11.07-.64-.17-.68-.14-.43.62-.69.1-.95-.03-.53.18-1,.33-1.65.55.38.09.57.16.76.18,1.88.17,3.72-.24,5.59-.22,1.6.02,3.21-.15,4.81-.27.2-.01.38-.18.58-.28-.46-.14-.84-.14-1.24-.1h-.01Z"/>
      </g>
    </g>
  </g>
</svg>